<?xml version="1.0" standalone="no"?><!DOCTYPE svg PUBLIC "-//W3C//DTD SVG 1.1//EN" "http://www.w3.org/Graphics/SVG/1.1/DTD/svg11.dtd"><svg class="icon" width="200px" height="199.80px" viewBox="0 0 1025 1024" version="1.1" xmlns="http://www.w3.org/2000/svg"><path fill="#cdcdcd" d="M341.845641 567.295044H114.347008A114.517777 114.517777 0 0 0 0.034154 681.163898v226.644787a114.517777 114.517777 0 0 0 114.312854 113.868855h227.498633a114.517777 114.517777 0 0 0 114.312854-113.868855V681.163898a116.123007 116.123007 0 0 0-114.312854-113.868854z m37.364285 341.538256a38.798746 38.798746 0 0 1-38.491362 38.320592H113.185778a38.798746 38.798746 0 0 1-38.491361-38.320592V682.188513a38.8329 38.8329 0 0 1 38.491361-38.354746h227.532786a38.8329 38.8329 0 0 1 38.491362 38.354746zM341.845641 0H114.347008A114.517777 114.517777 0 0 0 0.034154 113.868855v226.644787A114.517777 114.517777 0 0 0 114.347008 454.382496h227.498633a114.517777 114.517777 0 0 0 114.312854-113.868854V113.868855A115.235008 115.235008 0 0 0 341.845641 0.136615z m37.364285 340.513642a38.798746 38.798746 0 0 1-38.491362 38.354746H113.185778a38.8329 38.8329 0 0 1-38.491361-38.354746V113.868855a38.798746 38.798746 0 0 1 38.491361-38.354747h227.532786a38.8329 38.8329 0 0 1 38.491362 38.354747z m589.734107 226.644786a38.8329 38.8329 0 0 0-38.491361 38.354747v378.868387a38.491361 38.491361 0 0 0 76.982723 0V605.513175a40.43813 40.43813 0 0 0-38.525516-38.218131zM911.224068 0h-227.498633a114.517777 114.517777 0 0 0-114.312854 113.868855v226.644787a114.517777 114.517777 0 0 0 114.312854 113.868854h227.498633a114.517777 114.517777 0 0 0 114.312854-113.868854V113.868855A113.800547 113.800547 0 0 0 911.189914 0.136615z m38.491361 340.513642a38.798746 38.798746 0 0 1-38.491361 38.354746h-227.498633a38.8329 38.8329 0 0 1-38.491361-38.354746V113.868855a38.798746 38.798746 0 0 1 38.491361-38.354747h227.498633a38.8329 38.8329 0 0 1 38.491361 38.354747z m-322.582883 284.159829a38.8329 38.8329 0 0 0-38.491361 38.354746v321.353345a38.491361 38.491361 0 0 0 76.982723 0v-322.480421a39.413515 39.413515 0 0 0-38.525516-37.091055z m170.769128 113.868854a38.8329 38.8329 0 0 0-38.491361 38.354747v208.611567a38.491361 38.491361 0 0 0 76.982723 0v-208.611567a39.584284 39.584284 0 0 0-38.3889-38.218131z" /></svg>